{
	"asset":{
		"generator":"Khronos glTF Blender I/O v4.2.69",
		"version":"2.0"
	},
	"scene":0,
	"scenes":[
		{
			"name":"Scene",
			"nodes":[
				0,
				1,
				2,
				3,
				4,
				5,
				6,
				7,
				8
			]
		}
	],
	"nodes":[
		{
			"mesh":0,
			"name":"Entrance",
			"scale":[
				1.822500228881836,
				0.0062499986961483955,
				2.559999465942383
			],
			"translation":[
				22,
				0,
				0
			]
		},
		{
			"mesh":1,
			"name":"Toilet",
			"scale":[
				1.75,
				0.20000000298023224,
				1.0499999523162842
			],
			"translation":[
				22,
				0,
				-4
			]
		},
		{
			"mesh":2,
			"name":"LivingRoom",
			"scale":[
				5.150000095367432,
				0.25,
				2.6500000953674316
			],
			"translation":[
				11.701422691345215,
				0,
				4.76837158203125e-06
			]
		},
		{
			"mesh":3,
			"name":"Bathroom",
			"scale":[
				2.75,
				0.25,
				1.1749999523162842
			],
			"translation":[
				15.699999809265137,
				0,
				-5.300000190734863
			]
		},
		{
			"mesh":4,
			"name":"Vestibule",
			"scale":[
				2.375,
				0.25,
				1.2000000476837158
			],
			"translation":[
				20.7491397857666,
				0,
				-5.5
			]
		},
		{
			"mesh":5,
			"name":"Office",
			"scale":[
				1.7999999523162842,
				0.25,
				3.049999952316284
			],
			"translation":[
				21.899999618530273,
				0,
				-7.900000095367432
			]
		},
		{
			"mesh":6,
			"name":"Storage",
			"scale":[
				1.7999999523162842,
				0.25,
				1.524999976158142
			],
			"translation":[
				21.899999618530273,
				0,
				-14
			]
		},
		{
			"mesh":7,
			"name":"Garage",
			"scale":[
				3.450000047683716,
				0.25,
				3.950000047683716
			],
			"translation":[
				4.800000190734863,
				0,
				0
			]
		},
		{
			"mesh":8,
			"name":"OutsideWall",
			"scale":[
				0.20000000298023224,
				1.600000023841858,
				5.999996185302734
			],
			"translation":[
				4.800000190734863,
				0,
				-7.900000095367432
			]
		}
	],
	"materials":[
		{
			"doubleSided":true,
			"name":"Material.001",
			"pbrMetallicRoughness":{
				"baseColorFactor":[
					0.4070497453212738,
					0.4070497453212738,
					0.4070497453212738,
					1
				],
				"metallicFactor":0,
				"roughnessFactor":0
			}
		},
		{
			"doubleSided":true,
			"name":"Material",
			"pbrMetallicRoughness":{
				"baseColorFactor":[
					0.029341086745262146,
					0.029341086745262146,
					0.029341086745262146,
					1
				],
				"metallicFactor":0,
				"roughnessFactor":0.5
			}
		}
	],
	"meshes":[
		{
			"name":"Cube.001",
			"primitives":[
				{
					"attributes":{
						"POSITION":0,
						"NORMAL":1,
						"TEXCOORD_0":2,
						"COLOR_0":3,
						"COLOR_1":4
					},
					"indices":5,
					"material":0
				},
				{
					"attributes":{
						"POSITION":6,
						"NORMAL":7,
						"TEXCOORD_0":8,
						"COLOR_0":9,
						"COLOR_1":10
					},
					"indices":11,
					"material":1
				}
			]
		},
		{
			"name":"Cube",
			"primitives":[
				{
					"attributes":{
						"POSITION":12,
						"NORMAL":13,
						"TEXCOORD_0":14,
						"COLOR_0":15,
						"COLOR_1":16
					},
					"indices":17,
					"material":0
				},
				{
					"attributes":{
						"POSITION":18,
						"NORMAL":19,
						"TEXCOORD_0":20,
						"COLOR_0":21,
						"COLOR_1":22
					},
					"indices":23,
					"material":1
				}
			]
		},
		{
			"name":"Cube.002",
			"primitives":[
				{
					"attributes":{
						"POSITION":24,
						"NORMAL":25,
						"TEXCOORD_0":26,
						"COLOR_0":27,
						"COLOR_1":28
					},
					"indices":29,
					"material":0
				},
				{
					"attributes":{
						"POSITION":30,
						"NORMAL":31,
						"TEXCOORD_0":32,
						"COLOR_0":33,
						"COLOR_1":34
					},
					"indices":35,
					"material":1
				}
			]
		},
		{
			"name":"Cube.003",
			"primitives":[
				{
					"attributes":{
						"POSITION":36,
						"NORMAL":37,
						"TEXCOORD_0":38
					},
					"indices":39,
					"material":0
				},
				{
					"attributes":{
						"POSITION":40,
						"NORMAL":41,
						"TEXCOORD_0":42
					},
					"indices":43,
					"material":1
				}
			]
		},
		{
			"name":"Cube.004",
			"primitives":[
				{
					"attributes":{
						"POSITION":44,
						"NORMAL":45
					},
					"indices":46,
					"material":0
				},
				{
					"attributes":{
						"POSITION":47,
						"NORMAL":48
					},
					"indices":49,
					"material":1
				}
			]
		},
		{
			"name":"Cube.006",
			"primitives":[
				{
					"attributes":{
						"POSITION":50,
						"NORMAL":51,
						"TEXCOORD_0":52
					},
					"indices":53,
					"material":0
				},
				{
					"attributes":{
						"POSITION":54,
						"NORMAL":55,
						"TEXCOORD_0":56
					},
					"indices":57,
					"material":1
				}
			]
		},
		{
			"name":"Cube.007",
			"primitives":[
				{
					"attributes":{
						"POSITION":58,
						"NORMAL":59,
						"TEXCOORD_0":60
					},
					"indices":61,
					"material":0
				},
				{
					"attributes":{
						"POSITION":62,
						"NORMAL":63,
						"TEXCOORD_0":64
					},
					"indices":65,
					"material":1
				}
			]
		},
		{
			"name":"Cube.008",
			"primitives":[
				{
					"attributes":{
						"POSITION":66,
						"NORMAL":67,
						"TEXCOORD_0":68
					},
					"indices":69,
					"material":0
				},
				{
					"attributes":{
						"POSITION":70,
						"NORMAL":71,
						"TEXCOORD_0":72
					},
					"indices":73,
					"material":1
				}
			]
		},
		{
			"name":"Cube.009",
			"primitives":[
				{
					"attributes":{
						"POSITION":74,
						"NORMAL":75,
						"TEXCOORD_0":76
					},
					"indices":77,
					"material":0
				}
			]
		}
	],
	"accessors":[
		{
			"bufferView":0,
			"componentType":5126,
			"count":286,
			"max":[
				1.9204387664794922,
				560.0001220703125,
				0
			],
			"min":[
				5.960464477539063e-08,
				-7.62939453125e-06,
				-1.562500238418579
			],
			"type":"VEC3"
		},
		{
			"bufferView":1,
			"componentType":5126,
			"count":286,
			"type":"VEC3"
		},
		{
			"bufferView":2,
			"componentType":5126,
			"count":286,
			"type":"VEC2"
		},
		{
			"bufferView":3,
			"componentType":5121,
			"count":286,
			"normalized":true,
			"type":"VEC4"
		},
		{
			"bufferView":4,
			"componentType":5126,
			"count":286,
			"type":"VEC3"
		},
		{
			"bufferView":5,
			"componentType":5123,
			"count":576,
			"type":"SCALAR"
		},
		{
			"bufferView":6,
			"componentType":5126,
			"count":23,
			"max":[
				1.7009600400924683,
				80.00001525878906,
				0
			],
			"min":[
				5.960464477539063e-08,
				80.00000762939453,
				-1.562500238418579
			],
			"type":"VEC3"
		},
		{
			"bufferView":7,
			"componentType":5126,
			"count":23,
			"type":"VEC3"
		},
		{
			"bufferView":8,
			"componentType":5126,
			"count":23,
			"type":"VEC2"
		},
		{
			"bufferView":9,
			"componentType":5121,
			"count":23,
			"normalized":true,
			"type":"VEC4"
		},
		{
			"bufferView":10,
			"componentType":5126,
			"count":23,
			"type":"VEC3"
		},
		{
			"bufferView":11,
			"componentType":5123,
			"count":45,
			"type":"SCALAR"
		},
		{
			"bufferView":12,
			"componentType":5126,
			"count":42,
			"max":[
				2,
				17.5,
				0
			],
			"min":[
				0,
				0,
				-1.61904776096344
			],
			"type":"VEC3"
		},
		{
			"bufferView":13,
			"componentType":5126,
			"count":42,
			"type":"VEC3"
		},
		{
			"bufferView":14,
			"componentType":5126,
			"count":42,
			"type":"VEC2"
		},
		{
			"bufferView":15,
			"componentType":5121,
			"count":42,
			"normalized":true,
			"type":"VEC4"
		},
		{
			"bufferView":16,
			"componentType":5126,
			"count":42,
			"type":"VEC3"
		},
		{
			"bufferView":17,
			"componentType":5123,
			"count":72,
			"type":"SCALAR"
		},
		{
			"bufferView":18,
			"componentType":5126,
			"count":4,
			"max":[
				1.7714285850524902,
				2.5,
				0
			],
			"min":[
				0.22857144474983215,
				2.5,
				-1.2380952835083008
			],
			"type":"VEC3"
		},
		{
			"bufferView":19,
			"componentType":5126,
			"count":4,
			"type":"VEC3"
		},
		{
			"bufferView":20,
			"componentType":5126,
			"count":4,
			"type":"VEC2"
		},
		{
			"bufferView":21,
			"componentType":5121,
			"count":4,
			"normalized":true,
			"type":"VEC4"
		},
		{
			"bufferView":22,
			"componentType":5126,
			"count":4,
			"type":"VEC3"
		},
		{
			"bufferView":23,
			"componentType":5123,
			"count":6,
			"type":"SCALAR"
		},
		{
			"bufferView":24,
			"componentType":5126,
			"count":271,
			"max":[
				1.9999843835830688,
				12.800000190734863,
				-7.867813110351562e-06
			],
			"min":[
				-0.00010228157043457031,
				0,
				-2.9811341762542725
			],
			"type":"VEC3"
		},
		{
			"bufferView":25,
			"componentType":5126,
			"count":271,
			"type":"VEC3"
		},
		{
			"bufferView":26,
			"componentType":5126,
			"count":271,
			"type":"VEC2"
		},
		{
			"bufferView":27,
			"componentType":5121,
			"count":271,
			"normalized":true,
			"type":"VEC4"
		},
		{
			"bufferView":28,
			"componentType":5126,
			"count":271,
			"type":"VEC3"
		},
		{
			"bufferView":29,
			"componentType":5123,
			"count":549,
			"type":"SCALAR"
		},
		{
			"bufferView":30,
			"componentType":5126,
			"count":31,
			"max":[
				1.9999843835830688,
				2.0018155574798584,
				-0.15095138549804688
			],
			"min":[
				-6.198883056640625e-05,
				1.9981844425201416,
				-2.9811341762542725
			],
			"type":"VEC3"
		},
		{
			"bufferView":31,
			"componentType":5126,
			"count":31,
			"type":"VEC3"
		},
		{
			"bufferView":32,
			"componentType":5126,
			"count":31,
			"type":"VEC2"
		},
		{
			"bufferView":33,
			"componentType":5121,
			"count":31,
			"normalized":true,
			"type":"VEC4"
		},
		{
			"bufferView":34,
			"componentType":5126,
			"count":31,
			"type":"VEC3"
		},
		{
			"bufferView":35,
			"componentType":5123,
			"count":75,
			"type":"SCALAR"
		},
		{
			"bufferView":36,
			"componentType":5126,
			"count":93,
			"max":[
				1.8363642692565918,
				12,
				-1.430511474609375e-06
			],
			"min":[
				0,
				-4.76837158203125e-07,
				-2.212766647338867
			],
			"type":"VEC3"
		},
		{
			"bufferView":37,
			"componentType":5126,
			"count":93,
			"type":"VEC3"
		},
		{
			"bufferView":38,
			"componentType":5126,
			"count":93,
			"type":"VEC2"
		},
		{
			"bufferView":39,
			"componentType":5123,
			"count":180,
			"type":"SCALAR"
		},
		{
			"bufferView":40,
			"componentType":5126,
			"count":10,
			"max":[
				1.835302710533142,
				2.000375747680664,
				-1.430511474609375e-06
			],
			"min":[
				0.1454545557498932,
				1.9996232986450195,
				-1.8723405599594116
			],
			"type":"VEC3"
		},
		{
			"bufferView":41,
			"componentType":5126,
			"count":10,
			"type":"VEC3"
		},
		{
			"bufferView":42,
			"componentType":5126,
			"count":10,
			"type":"VEC2"
		},
		{
			"bufferView":43,
			"componentType":5123,
			"count":18,
			"type":"SCALAR"
		},
		{
			"bufferView":44,
			"componentType":5126,
			"count":94,
			"max":[
				2,
				11.800000190734863,
				0.1666666567325592
			],
			"min":[
				0,
				0,
				-2.0000228881835938
			],
			"type":"VEC3"
		},
		{
			"bufferView":45,
			"componentType":5126,
			"count":94,
			"type":"VEC3"
		},
		{
			"bufferView":46,
			"componentType":5123,
			"count":180,
			"type":"SCALAR"
		},
		{
			"bufferView":47,
			"componentType":5126,
			"count":10,
			"max":[
				1.8323888778686523,
				2,
				0.1666666567325592
			],
			"min":[
				0,
				2,
				-2.0000228881835938
			],
			"type":"VEC3"
		},
		{
			"bufferView":48,
			"componentType":5126,
			"count":10,
			"type":"VEC3"
		},
		{
			"bufferView":49,
			"componentType":5123,
			"count":24,
			"type":"SCALAR"
		},
		{
			"bufferView":50,
			"componentType":5126,
			"count":132,
			"max":[
				2,
				10.79998779296875,
				0
			],
			"min":[
				-0.0018983781337738037,
				0,
				-2.0000245571136475
			],
			"type":"VEC3"
		},
		{
			"bufferView":51,
			"componentType":5126,
			"count":132,
			"type":"VEC3"
		},
		{
			"bufferView":52,
			"componentType":5126,
			"count":132,
			"type":"VEC2"
		},
		{
			"bufferView":53,
			"componentType":5123,
			"count":234,
			"type":"SCALAR"
		},
		{
			"bufferView":54,
			"componentType":5126,
			"count":8,
			"max":[
				1.7794537544250488,
				2,
				0
			],
			"min":[
				0.21817034482955933,
				2,
				-2.0000174045562744
			],
			"type":"VEC3"
		},
		{
			"bufferView":55,
			"componentType":5126,
			"count":8,
			"type":"VEC3"
		},
		{
			"bufferView":56,
			"componentType":5126,
			"count":8,
			"type":"VEC2"
		},
		{
			"bufferView":57,
			"componentType":5123,
			"count":18,
			"type":"SCALAR"
		},
		{
			"bufferView":58,
			"componentType":5126,
			"count":36,
			"max":[
				2,
				10.800000190734863,
				0
			],
			"min":[
				0,
				0,
				-2
			],
			"type":"VEC3"
		},
		{
			"bufferView":59,
			"componentType":5126,
			"count":36,
			"type":"VEC3"
		},
		{
			"bufferView":60,
			"componentType":5126,
			"count":36,
			"type":"VEC2"
		},
		{
			"bufferView":61,
			"componentType":5123,
			"count":60,
			"type":"SCALAR"
		},
		{
			"bufferView":62,
			"componentType":5126,
			"count":4,
			"max":[
				1.777838945388794,
				2,
				0
			],
			"min":[
				0.22081826627254486,
				2,
				-1.738222360610962
			],
			"type":"VEC3"
		},
		{
			"bufferView":63,
			"componentType":5126,
			"count":4,
			"type":"VEC3"
		},
		{
			"bufferView":64,
			"componentType":5126,
			"count":4,
			"type":"VEC2"
		},
		{
			"bufferView":65,
			"componentType":5123,
			"count":6,
			"type":"SCALAR"
		},
		{
			"bufferView":66,
			"componentType":5126,
			"count":195,
			"max":[
				2,
				12.800000190734863,
				0
			],
			"min":[
				0,
				0,
				-2
			],
			"type":"VEC3"
		},
		{
			"bufferView":67,
			"componentType":5126,
			"count":195,
			"type":"VEC3"
		},
		{
			"bufferView":68,
			"componentType":5126,
			"count":195,
			"type":"VEC2"
		},
		{
			"bufferView":69,
			"componentType":5123,
			"count":396,
			"type":"SCALAR"
		},
		{
			"bufferView":70,
			"componentType":5126,
			"count":16,
			"max":[
				2,
				2.0003132820129395,
				0
			],
			"min":[
				0.11594202369451523,
				1.9996867179870605,
				-2
			],
			"type":"VEC3"
		},
		{
			"bufferView":71,
			"componentType":5126,
			"count":16,
			"type":"VEC3"
		},
		{
			"bufferView":72,
			"componentType":5126,
			"count":16,
			"type":"VEC2"
		},
		{
			"bufferView":73,
			"componentType":5123,
			"count":36,
			"type":"SCALAR"
		},
		{
			"bufferView":74,
			"componentType":5126,
			"count":24,
			"max":[
				2,
				2,
				0
			],
			"min":[
				0,
				0,
				-2
			],
			"type":"VEC3"
		},
		{
			"bufferView":75,
			"componentType":5126,
			"count":24,
			"type":"VEC3"
		},
		{
			"bufferView":76,
			"componentType":5126,
			"count":24,
			"type":"VEC2"
		},
		{
			"bufferView":77,
			"componentType":5123,
			"count":36,
			"type":"SCALAR"
		}
	],
	"bufferViews":[
		{
			"buffer":0,
			"byteLength":3432,
			"byteOffset":0,
			"target":34962
		},
		{
			"buffer":0,
			"byteLength":3432,
			"byteOffset":3432,
			"target":34962
		},
		{
			"buffer":0,
			"byteLength":2288,
			"byteOffset":6864,
			"target":34962
		},
		{
			"buffer":0,
			"byteLength":1144,
			"byteOffset":9152,
			"target":34962
		},
		{
			"buffer":0,
			"byteLength":3432,
			"byteOffset":10296,
			"target":34962
		},
		{
			"buffer":0,
			"byteLength":1152,
			"byteOffset":13728,
			"target":34963
		},
		{
			"buffer":0,
			"byteLength":276,
			"byteOffset":14880,
			"target":34962
		},
		{
			"buffer":0,
			"byteLength":276,
			"byteOffset":15156,
			"target":34962
		},
		{
			"buffer":0,
			"byteLength":184,
			"byteOffset":15432,
			"target":34962
		},
		{
			"buffer":0,
			"byteLength":92,
			"byteOffset":15616,
			"target":34962
		},
		{
			"buffer":0,
			"byteLength":276,
			"byteOffset":15708,
			"target":34962
		},
		{
			"buffer":0,
			"byteLength":90,
			"byteOffset":15984,
			"target":34963
		},
		{
			"buffer":0,
			"byteLength":504,
			"byteOffset":16076,
			"target":34962
		},
		{
			"buffer":0,
			"byteLength":504,
			"byteOffset":16580,
			"target":34962
		},
		{
			"buffer":0,
			"byteLength":336,
			"byteOffset":17084,
			"target":34962
		},
		{
			"buffer":0,
			"byteLength":168,
			"byteOffset":17420,
			"target":34962
		},
		{
			"buffer":0,
			"byteLength":504,
			"byteOffset":17588,
			"target":34962
		},
		{
			"buffer":0,
			"byteLength":144,
			"byteOffset":18092,
			"target":34963
		},
		{
			"buffer":0,
			"byteLength":48,
			"byteOffset":18236,
			"target":34962
		},
		{
			"buffer":0,
			"byteLength":48,
			"byteOffset":18284,
			"target":34962
		},
		{
			"buffer":0,
			"byteLength":32,
			"byteOffset":18332,
			"target":34962
		},
		{
			"buffer":0,
			"byteLength":16,
			"byteOffset":18364,
			"target":34962
		},
		{
			"buffer":0,
			"byteLength":48,
			"byteOffset":18380,
			"target":34962
		},
		{
			"buffer":0,
			"byteLength":12,
			"byteOffset":18428,
			"target":34963
		},
		{
			"buffer":0,
			"byteLength":3252,
			"byteOffset":18440,
			"target":34962
		},
		{
			"buffer":0,
			"byteLength":3252,
			"byteOffset":21692,
			"target":34962
		},
		{
			"buffer":0,
			"byteLength":2168,
			"byteOffset":24944,
			"target":34962
		},
		{
			"buffer":0,
			"byteLength":1084,
			"byteOffset":27112,
			"target":34962
		},
		{
			"buffer":0,
			"byteLength":3252,
			"byteOffset":28196,
			"target":34962
		},
		{
			"buffer":0,
			"byteLength":1098,
			"byteOffset":31448,
			"target":34963
		},
		{
			"buffer":0,
			"byteLength":372,
			"byteOffset":32548,
			"target":34962
		},
		{
			"buffer":0,
			"byteLength":372,
			"byteOffset":32920,
			"target":34962
		},
		{
			"buffer":0,
			"byteLength":248,
			"byteOffset":33292,
			"target":34962
		},
		{
			"buffer":0,
			"byteLength":124,
			"byteOffset":33540,
			"target":34962
		},
		{
			"buffer":0,
			"byteLength":372,
			"byteOffset":33664,
			"target":34962
		},
		{
			"buffer":0,
			"byteLength":150,
			"byteOffset":34036,
			"target":34963
		},
		{
			"buffer":0,
			"byteLength":1116,
			"byteOffset":34188,
			"target":34962
		},
		{
			"buffer":0,
			"byteLength":1116,
			"byteOffset":35304,
			"target":34962
		},
		{
			"buffer":0,
			"byteLength":744,
			"byteOffset":36420,
			"target":34962
		},
		{
			"buffer":0,
			"byteLength":360,
			"byteOffset":37164,
			"target":34963
		},
		{
			"buffer":0,
			"byteLength":120,
			"byteOffset":37524,
			"target":34962
		},
		{
			"buffer":0,
			"byteLength":120,
			"byteOffset":37644,
			"target":34962
		},
		{
			"buffer":0,
			"byteLength":80,
			"byteOffset":37764,
			"target":34962
		},
		{
			"buffer":0,
			"byteLength":36,
			"byteOffset":37844,
			"target":34963
		},
		{
			"buffer":0,
			"byteLength":1128,
			"byteOffset":37880,
			"target":34962
		},
		{
			"buffer":0,
			"byteLength":1128,
			"byteOffset":39008,
			"target":34962
		},
		{
			"buffer":0,
			"byteLength":360,
			"byteOffset":40136,
			"target":34963
		},
		{
			"buffer":0,
			"byteLength":120,
			"byteOffset":40496,
			"target":34962
		},
		{
			"buffer":0,
			"byteLength":120,
			"byteOffset":40616,
			"target":34962
		},
		{
			"buffer":0,
			"byteLength":48,
			"byteOffset":40736,
			"target":34963
		},
		{
			"buffer":0,
			"byteLength":1584,
			"byteOffset":40784,
			"target":34962
		},
		{
			"buffer":0,
			"byteLength":1584,
			"byteOffset":42368,
			"target":34962
		},
		{
			"buffer":0,
			"byteLength":1056,
			"byteOffset":43952,
			"target":34962
		},
		{
			"buffer":0,
			"byteLength":468,
			"byteOffset":45008,
			"target":34963
		},
		{
			"buffer":0,
			"byteLength":96,
			"byteOffset":45476,
			"target":34962
		},
		{
			"buffer":0,
			"byteLength":96,
			"byteOffset":45572,
			"target":34962
		},
		{
			"buffer":0,
			"byteLength":64,
			"byteOffset":45668,
			"target":34962
		},
		{
			"buffer":0,
			"byteLength":36,
			"byteOffset":45732,
			"target":34963
		},
		{
			"buffer":0,
			"byteLength":432,
			"byteOffset":45768,
			"target":34962
		},
		{
			"buffer":0,
			"byteLength":432,
			"byteOffset":46200,
			"target":34962
		},
		{
			"buffer":0,
			"byteLength":288,
			"byteOffset":46632,
			"target":34962
		},
		{
			"buffer":0,
			"byteLength":120,
			"byteOffset":46920,
			"target":34963
		},
		{
			"buffer":0,
			"byteLength":48,
			"byteOffset":47040,
			"target":34962
		},
		{
			"buffer":0,
			"byteLength":48,
			"byteOffset":47088,
			"target":34962
		},
		{
			"buffer":0,
			"byteLength":32,
			"byteOffset":47136,
			"target":34962
		},
		{
			"buffer":0,
			"byteLength":12,
			"byteOffset":47168,
			"target":34963
		},
		{
			"buffer":0,
			"byteLength":2340,
			"byteOffset":47180,
			"target":34962
		},
		{
			"buffer":0,
			"byteLength":2340,
			"byteOffset":49520,
			"target":34962
		},
		{
			"buffer":0,
			"byteLength":1560,
			"byteOffset":51860,
			"target":34962
		},
		{
			"buffer":0,
			"byteLength":792,
			"byteOffset":53420,
			"target":34963
		},
		{
			"buffer":0,
			"byteLength":192,
			"byteOffset":54212,
			"target":34962
		},
		{
			"buffer":0,
			"byteLength":192,
			"byteOffset":54404,
			"target":34962
		},
		{
			"buffer":0,
			"byteLength":128,
			"byteOffset":54596,
			"target":34962
		},
		{
			"buffer":0,
			"byteLength":72,
			"byteOffset":54724,
			"target":34963
		},
		{
			"buffer":0,
			"byteLength":288,
			"byteOffset":54796,
			"target":34962
		},
		{
			"buffer":0,
			"byteLength":288,
			"byteOffset":55084,
			"target":34962
		},
		{
			"buffer":0,
			"byteLength":192,
			"byteOffset":55372,
			"target":34962
		},
		{
			"buffer":0,
			"byteLength":72,
			"byteOffset":55564,
			"target":34963
		}
	],
	"buffers":[
		{
			"byteLength":55636,
			"uri":"maison_repro_v1.bin"
		}
	]
}
